<svg width="50" height="36" viewBox="0 0 50 36" xmlns="http://www.w3.org/2000/svg">
<path d="M16.4444 7.52393C14.7391 7.52393 13 8.6888 13 10.5239V18.2739H17.655L20.9576 14.4209L23.3692 16.8325L27.0107 11.1102L31.4191 18.2739H37V10.5239C37 8.6888 35.2609 7.52393 33.5556 7.52393H16.4444Z" fill="#8E9195"/>
<path d="M37 19.7739H30.5809L26.9893 13.9376L23.6308 19.2154L21.0424 16.6269L18.345 19.7739H13V20.5239C13 22.359 14.7391 23.5239 16.4444 23.5239H24V25.5239H21C20.4477 25.5239 20 25.9716 20 26.5239C20 27.0762 20.4477 27.5239 21 27.5239H29C29.5523 27.5239 30 27.0762 30 26.5239C30 25.9716 29.5523 25.5239 29 25.5239H26V23.5239H33.5556C35.2609 23.5239 37 22.359 37 20.5239V19.7739Z" fill="#8E9195"/>
</svg>
